<svg xmlns="http://www.w3.org/2000/svg" width="24" height="24" viewBox="0 0 24 24">
    <g fill="none" fill-rule="evenodd">
        <path d="M0 0h24v24H0z"/>
        <g fill="#1E232C">
            <path d="M5.825 2h7.88a1.5 1.5 0 0 1 .968.355l4.764 4.029a1.5 1.5 0 0 1 .531 1.145v12.554c0 1.79-.02 1.917-1.857 1.917H5.825c-1.836 0-1.857-.126-1.857-1.917V3.917c0-1.79.02-1.917 1.857-1.917z" opacity=".3"/>
            <path d="M11.93 15.456c.373 0 .675.34.675.759v2.276c0 .42-.302.759-.674.759-.373 0-.675-.34-.675-.759v-2.276c0-.384.254-.702.583-.752l.092-.007zm0-10.117c.373 0 .675.377.675.843v1.686c0 .466-.302.843-.674.843-.373 0-.675-.377-.675-.843V6.182c0-.427.254-.78.583-.835l.092-.008z" opacity=".3"/>
            <path d="M13.95 10.09a1.978 1.978 0 0 0-.737-.57 2.079 2.079 0 0 0-1.32-.173c-.15.025-.284.074-.404.147a.998.998 0 0 0-.301.282.75.75 0 0 0-.122.442c0 .154.032.282.096.384a.855.855 0 0 0 .282.27c.124.076.271.147.442.211.171.064.363.13.577.199.307.102.628.215.961.34.333.123.636.288.91.493.273.205.5.459.679.762.18.303.27.681.27 1.134 0 .521-.097.972-.29 1.352-.191.38-.45.694-.774.942a3.322 3.322 0 0 1-1.115.551c-.419.12-.85.18-1.295.18-.649 0-1.277-.114-1.883-.34a3.991 3.991 0 0 1-1.513-.968l1.436-1.46c.222.273.514.501.877.685.364.184.725.276 1.083.276.163 0 .32-.018.474-.052.154-.034.289-.09.404-.166a.834.834 0 0 0 .276-.308.968.968 0 0 0 .102-.461.73.73 0 0 0-.128-.436 1.252 1.252 0 0 0-.365-.327 2.942 2.942 0 0 0-.59-.269 30.29 30.29 0 0 0-.8-.262 7.654 7.654 0 0 1-.853-.334 2.852 2.852 0 0 1-.743-.493 2.285 2.285 0 0 1-.525-.73c-.133-.287-.2-.635-.2-1.045 0-.504.103-.935.308-1.294.206-.359.475-.654.808-.884.333-.231.709-.4 1.128-.507.418-.106.841-.16 1.268-.16a4.71 4.71 0 0 1 1.57.282 4.042 4.042 0 0 1 1.403.833L13.95 10.09z"/>
        </g>
    </g>
</svg>
