<svg xmlns="http://www.w3.org/2000/svg" width="24" height="24" viewBox="0 0 24 24">
    <g fill="none" fill-rule="evenodd">
        <path d="M0 0h24v24H0z"/>
        <path fill="#1E232C" d="M5.84 8h12.32a2 2 0 0 1 1.993 1.834l.666 8A2 2 0 0 1 18.826 20H5.174a2 2 0 0 1-1.993-2.166l.666-8A2 2 0 0 1 5.84 8zm4.66 2a.5.5 0 0 0-.5.5v1a.5.5 0 0 0 .5.5h3a.5.5 0 0 0 .5-.5v-1a.5.5 0 0 0-.5-.5h-3z"/>
        <path fill="#1E232C" d="M10 8H8V7a3 3 0 0 1 3-3h2a3 3 0 0 1 3 3v1h-2V7a1 1 0 0 0-1-1h-2a1 1 0 0 0-1 1v1z" opacity=".3"/>
    </g>
</svg>
