<svg xmlns="http://www.w3.org/2000/svg" width="24" height="24" viewBox="0 0 24 24">
    <g fill="none" fill-rule="evenodd">
        <path d="M0 0h24v24H0z"/>
        <path fill="#1E232C" d="M16.017 6.566l-1.098.768a.563.563 0 0 0 .147.996l3.814 1.257a.563.563 0 0 0 .739-.519l.11-4.005a.563.563 0 0 0-.885-.477l-.908.636A9.009 9.009 0 1 0 21.009 12h-2.252a6.757 6.757 0 1 1-2.74-5.434z"/>
        <g fill="#1E232C">
            <path d="M12.04 14.01c.244 0 .443.222.443.498V16c0 .276-.199.498-.443.498-.245 0-.443-.222-.443-.498v-1.493c0-.245.157-.448.363-.49l.08-.008zm0-6.64c.244 0 .443.247.443.553V9.03c0 .305-.199.553-.443.553-.245 0-.443-.248-.443-.553V7.923c0-.272.157-.498.363-.544l.08-.01z" opacity=".3"/>
            <path d="M13.365 10.488a1.298 1.298 0 0 0-.484-.375 1.364 1.364 0 0 0-.866-.113.75.75 0 0 0-.265.097.655.655 0 0 0-.198.185.493.493 0 0 0-.08.29c0 .1.021.185.063.252a.561.561 0 0 0 .185.177c.082.05.179.097.29.139.113.042.239.085.38.13.201.067.411.141.63.223.219.081.418.189.597.324a1.7 1.7 0 0 1 .446.5c.118.2.176.447.176.744 0 .342-.063.638-.189.888a1.77 1.77 0 0 1-.509.618 2.18 2.18 0 0 1-.731.361 3.077 3.077 0 0 1-.85.118c-.426 0-.838-.074-1.236-.223a2.62 2.62 0 0 1-.993-.635l.942-.958c.146.179.338.329.577.45.238.12.475.18.71.18.107 0 .21-.01.311-.033s.19-.06.265-.11a.547.547 0 0 0 .181-.201.635.635 0 0 0 .067-.303.48.48 0 0 0-.084-.286.822.822 0 0 0-.24-.215 1.93 1.93 0 0 0-.386-.176 19.88 19.88 0 0 0-.526-.173 5.024 5.024 0 0 1-.56-.218 1.872 1.872 0 0 1-.487-.324 1.5 1.5 0 0 1-.345-.48 1.625 1.625 0 0 1-.13-.685c0-.33.067-.614.202-.85.134-.235.31-.428.53-.58.218-.151.465-.262.74-.332a3.091 3.091 0 0 1 1.863.08c.35.123.657.305.92.547l-.916.967z"/>
        </g>
    </g>
</svg>
