<svg xmlns="http://www.w3.org/2000/svg" width="24" height="24" viewBox="0 0 24 24">
    <g fill="none" fill-rule="evenodd">
        <path d="M0 0h24v24H0z"/>
        <g fill="#1E232C">
            <path d="M19.76 15.69c-1.082 0-4.367 2.14-6.929 1.166 1.684-.13 3.497-.518 3.497-1.554 0-.971-1.878-1.165-4.21-1.424l-1.942-.195a2.326 2.326 0 0 0-2.461 1.656l-.906 3.071c-.064.194.065.324.195.389l4.856 1.618c.647.26 1.1.389 1.683.389.842 0 1.749-.324 3.885-1.23l2.913-1.538a1.246 1.246 0 0 0-.582-2.347zM2.958 13.49l-.228 5.373c0 .195.13.324.324.324a3.624 3.624 0 0 0 3.543-2.862l.383-1.783a2.346 2.346 0 0 0-1.725-2.769 1.85 1.85 0 0 0-2.297 1.717z"/>
        </g>
        <path d="M7.423 2.64H19.06v11.637H7.423z"/>
        <path fill="#1E232C" d="M13.484 10.398c.268 0 .485.244.485.546v1.636c0 .301-.217.546-.485.546s-.485-.245-.485-.546v-1.636c0-.268.172-.49.398-.537l.087-.009zm0-7.273c.268 0 .485.271.485.606v1.212c0 .335-.217.606-.485.606s-.485-.27-.485-.606V3.731c0-.301.176-.551.406-.598l.079-.008z" opacity=".3"/>
        <path fill="#1E232C" d="M14.935 6.54a1.422 1.422 0 0 0-.53-.41 1.494 1.494 0 0 0-.949-.124.82.82 0 0 0-.29.106.717.717 0 0 0-.216.203.54.54 0 0 0-.088.318c0 .11.023.202.07.276a.615.615 0 0 0 .202.194c.09.055.195.105.318.152.123.046.26.093.414.142.222.074.452.155.691.244.24.09.458.208.654.355.197.148.36.33.489.548.129.218.193.49.193.816 0 .374-.069.698-.207.972a1.938 1.938 0 0 1-.557.677c-.234.178-.501.31-.802.396a3.37 3.37 0 0 1-.93.129c-.467 0-.919-.082-1.355-.244a2.87 2.87 0 0 1-1.087-.696l1.032-1.05c.16.196.37.36.631.493.261.132.52.198.779.198.116 0 .23-.012.34-.037a.85.85 0 0 0 .29-.12.6.6 0 0 0 .199-.22.696.696 0 0 0 .073-.333.525.525 0 0 0-.092-.313.9.9 0 0 0-.262-.235 2.115 2.115 0 0 0-.424-.193c-.169-.059-.36-.121-.576-.189a5.503 5.503 0 0 1-.612-.24 2.05 2.05 0 0 1-.535-.354 1.643 1.643 0 0 1-.378-.525 1.78 1.78 0 0 1-.142-.751c0-.363.073-.673.22-.93.148-.259.342-.47.581-.636.24-.166.51-.287.81-.364.302-.077.606-.115.913-.115.368 0 .745.067 1.128.202.384.135.72.335 1.01.6L14.934 6.54z"/>
    </g>
</svg>
