<svg xmlns="http://www.w3.org/2000/svg" width="24" height="24" viewBox="0 0 24 24">
    <g fill="none" fill-rule="evenodd">
        <path d="M0 0h24v24H0z"/>
        <path fill="#1E232C" d="M15.123 19.011L7.838 14.82a3.996 3.996 0 0 0 1.024-1.774l7.236 4.202a3.993 3.993 0 0 0-.975 1.764zm-7.367-9.91l7.321-4.313c.14.698.461 1.33.913 1.846l-7.125 4.332A3.998 3.998 0 0 0 7.755 9.1z"/>
        <path fill="#1E232C" d="M19 17a3 3 0 1 1 0 6 3 3 0 0 1 0-6zM5 9a3 3 0 1 1 0 6 3 3 0 0 1 0-6zm14-8a3 3 0 1 1 0 6 3 3 0 0 1 0-6z" opacity=".3"/>
    </g>
</svg>
