<svg xmlns="http://www.w3.org/2000/svg" width="24" height="24" viewBox="0 0 24 24">
    <g fill="none" fill-rule="evenodd">
        <path d="M0 0h24v24H0z"/>
        <path fill="#1E232C" d="M12 2c5.523 0 10 4.477 10 10s-4.477 10-10 10S2 17.523 2 12 6.477 2 12 2z" opacity=".3"/>
        <path fill="#1E232C" d="M6.168 14.555a1 1 0 0 1 1.664-1.11C8.99 15.181 10.354 16 12 16c1.646 0 3.01-.82 4.168-2.555a1 1 0 1 1 1.664 1.11C16.322 16.819 14.354 18 12 18c-2.354 0-4.322-1.18-5.832-3.445z"/>
    </g>
</svg>
